#!OML:ASF F:\VICON\USERDATA\INSTALL\rory3\rory3.ASF
:FULLY-SPECIFIED
:DEGREES
163
root 1.79618 17.3858 2.86483 -88.1955 -80.4413 91.8347
lowerback 39.4032 -0.0630066 -0.50807
upperback 7.63189 -0.889624 3.39885
thorax -10.6601 -0.847348 4.38587
lowerneck -11.2694 -0.0626471 -2.47055
upperneck 15.1739 1.59932 -8.9897
head 6.56197 -0.213821 -2.34589
rclavicle 6.36111e-015 1.27222e-014
rhumerus -5.08154 -27.1403 -49.6653
rradius 84.8921
rwrist 2.77608
rhand -0.818635 4.72529
rfingers 7.12502
rthumb 24.806 -23.6858
lclavicle 6.36111e-015 1.27222e-014
lhumerus -49.0492 5.36387 77.7354
lradius 58.3736
lwrist 16.7037
lhand -14.0316 49.6269
lfingers 7.12502
lthumb 12.0986 79.2571
rfemur -32.9803 -1.06828 11.3167
rtibia 57.6355
rfoot -19.7416 -7.80448
rtoes 3.84323
lfemur -19.6172 -2.11438 -5.54322
ltibia 43.3112
lfoot -3.86612 3.37063
ltoes -13.5352
164
root 1.84081 17.3225 3.01718 -89.4137 -80.166 92.7232
lowerback 39.7502 -0.0340265 -1.10927
upperback 7.7643 -1.09947 3.65375
thorax -10.6074 -0.95066 5.07264
lowerneck -11.6913 0.21927 -2.6818
upperneck 15.2875 2.1219 -9.45116
head 6.69988 -0.0357306 -2.41833
rclavicle 4.45278e-014 -1.74931e-014
rhumerus -4.0045 -24.822 -50.6506
rradius 86.0596
rwrist 4.7315
rhand -1.81554 5.49425
rfingers 7.12502
rthumb 23.8503 -23.045
lclavicle 4.45278e-014 -1.74931e-014
lhumerus -48.6372 6.45158 78.3124
lradius 57.2838
lwrist 15.8707
lhand -15.6356 49.9973
lfingers 7.12502
lthumb 10.5516 79.7124
rfemur -33.1705 -0.043896 10.3877
rtibia 58.3569
rfoot -19.8572 -9.00757
rtoes -0.731927
lfemur -18.9483 -2.09423 -5.07674
ltibia 43.1018
lfoot -3.54308 4.06255
ltoes -16.6089
165
root 1.8835 17.2645 3.17052 -90.2616 -79.9918 93.2739
lowerback 40.0154 -0.131669 -1.44824
upperback 7.87409 -1.37233 3.79213
thorax -10.5431 -1.08538 5.52048
lowerneck -11.9183 0.495084 -2.95579
upperneck 15.3913 2.60803 -9.72018
head 6.79687 0.142005 -2.41882
rclavicle -1.59028e-014 -1.90833e-014
rhumerus -3.37941 -22.0316 -51.8592
rradius 87.4037
rwrist 6.18929
rhand -3.95723 5.06154
rfingers 7.12502
rthumb 21.795 -23.7312
lclavicle -1.59028e-014 -1.90833e-014
lhumerus -48.2151 7.33181 78.6526
lradius 56.3094
lwrist 15.1609
lhand -16.9725 50.7871
lfingers 7.12502
lthumb 9.26184 80.5636
rfemur -33.3918 -0.5792 9.65506
rtibia 58.9762
rfoot -20.0013 -8.92546
rtoes -4.51587
lfemur -18.3116 -2.43869 -4.47707
ltibia 42.8505
lfoot -3.3509 4.73184
ltoes -18.4203
166
root 1.92177 17.2155 3.32845 -90.8412 -79.8508 93.6031
lowerback 40.142 -0.113176 -1.56757
upperback 7.94555 -1.4042 3.88988
thorax -10.4991 -1.10814 5.70456
lowerneck -11.843 0.580042 -3.30142
upperneck 15.4535 2.78147 -9.72353
head 6.80896 0.19987 -2.3479
rclavicle -2.38542e-014 1.27222e-014
rhumerus -3.33495 -19.7521 -52.5761
rradius 88.2974
rwrist 8.03958
rhand -5.76351 4.98137
rfingers 7.12502
rthumb 20.0597 -24.0031
lclavicle -2.38542e-014 1.27222e-014
lhumerus -47.6527 7.55712 79.086
lradius 55.3437
lwrist 14.6276
lhand -18.3857 51.5143
lfingers 7.12502
lthumb 7.89805 81.3468
rfemur -33.6031 -0.707756 8.70229
rtibia 59.5167
rfoot -21.1469 -7.24423
rtoes 3.72004
lfemur -17.7109 -2.79335 -3.91886
ltibia 42.5348
lfoot -3.14835 5.34204
ltoes -15.137
167
root 1.96234 17.1519 3.49969 -91.0449 -79.5297 93.7413
lowerback 40.0626 -0.0368953 -1.67622
upperback 7.96345 -1.36246 3.79958
thorax -10.4557 -1.08605 5.64266
lowerneck -11.6939 0.597818 -3.10541
upperneck 15.4968 2.77002 -9.76377
head 6.79765 0.205072 -2.3943
rclavicle -3.81667e-014 -3.18055e-015
rhumerus -3.22047 -17.84 -52.8041
rradius 88.4179
rwrist 9.78394
rhand -7.28304 5.17654
rfingers 7.12502
rthumb 18.5986 -23.9544
lclavicle -3.81667e-014 -3.18055e-015
lhumerus -46.9242 7.20617 79.4919
lradius 54.2715
lwrist 13.9874
lhand -19.7187 51.7582
lfingers 7.12502
lthumb 6.61141 81.635
rfemur -33.9351 -1.35405 7.84389
rtibia 59.9306
rfoot -21.2315 -7.85009
rtoes -1.58567
lfemur -17.4506 -2.92674 -3.62369
ltibia 42.2625
lfoot -2.63565 5.9134
ltoes -15.4451
168
root 2.00621 17.0971 3.67593 -90.1582 -79.7521 92.9438
lowerback 39.8647 -0.324064 -1.15796
upperback 7.97896 -1.50762 3.78746
thorax -10.3652 -1.16203 5.41111
lowerneck -11.9841 0.685956 -2.81195
upperneck 15.7291 2.93636 -10.1456
head 6.94064 0.247284 -2.55621
rclavicle 4.77083e-015 1.74931e-014
rhumerus -3.55252 -15.8515 -54.5831
rradius 89.0427
rwrist 12.7271
rhand -9.03015 5.89226
rfingers 7.12502
rthumb 16.9174 -23.3909
lclavicle 4.77083e-015 1.74931e-014
lhumerus -46.193 7.08397 79.8309
lradius 53.3579
lwrist 12.8971
lhand -20.7755 52.5632
lfingers 7.12502
lthumb 5.5911 82.4695
rfemur -34.327 -1.9281 7.48523
rtibia 60.21
rfoot -21.6015 -7.81509
rtoes -1.8036
lfemur -17.3906 -3.40227 -2.72973
ltibia 41.8367
lfoot -2.04849 6.47738
ltoes -17.4062
169
root 2.05781 17.0457 3.85619 -88.5788 -80.0248 91.3848
lowerback 39.8364 -0.737841 -0.622634
upperback 7.94085 -1.7871 3.91695
thorax -10.3799 -1.29904 5.38784
lowerneck -12.2315 0.772937 -3.29668
upperneck 15.8768 3.16062 -10.0734
head 7.03774 0.313539 -2.4346
rclavicle 4.13472e-014 6.36111e-015
rhumerus -3.2102 -13.6715 -55.7984
rradius 88.6752
rwrist 15.2863
rhand -10.5421 7.11347
rfingers 7.12502
rthumb 15.4615 -22.2882
lclavicle 4.13472e-014 6.36111e-015
lhumerus -45.7182 7.46226 80.2927
lradius 52.5903
lwrist 11.5676
lhand -19.9328 52.3351
lfingers 7.12502
lthumb 6.40468 82.2182
rfemur -34.5897 -2.54095 7.2162
rtibia 60.3874
rfoot -21.6317 -8.41548
rtoes -5.83096
lfemur -17.3895 -4.22529 -1.80933
ltibia 41.425
lfoot -1.43412 6.93218
ltoes -17.4365
170
root 2.09008 17.0013 3.99954 -93.2241 -79.9622 95.609
lowerback 40.2605 0.101928 -0.753988
upperback 7.94949 -0.830997 3.73149
thorax -10.5884 -0.861441 4.86352
lowerneck -12.0256 0.312067 -2.30624
upperneck 16.1973 2.37399 -10.1536
head 7.07696 -0.0133608 -2.70411
rclavicle 9.54166e-015 -7.95139e-015
rhumerus -4.17776 -13.216 -56.3909
rradius 87.8049
rwrist 17.433
rhand -12.3584 8.26223
rfingers 7.12502
rthumb 13.7116 -21.266
lclavicle 9.54166e-015 -7.95139e-015
lhumerus -44.9967 5.49308 80.9097
lradius 51.8248
lwrist 10.2964
lhand -14.9596 49.7644
lfingers 7.12502
lthumb 11.2037 79.4452
rfemur -34.4264 -1.75682 6.67174
rtibia 60.5235
rfoot -21.4937 -9.50346
rtoes -11.8764
lfemur -16.1298 -4.20687 -1.25467
ltibia 40.8211
lfoot -1.22086 7.108
ltoes -14.2851
171
root 2.13631 16.9546 4.18433 -94.3244 -79.9118 96.6428
lowerback 40.3846 0.0194105 -0.649742
upperback 7.93822 -0.902414 3.68099
thorax -10.6354 -0.897136 4.78738
lowerneck -12.3082 0.421398 -2.53522
upperneck 16.4414 2.59874 -10.114
head 7.21578 0.0620363 -2.63751
rclavicle 6.36111e-015 5.56597e-014
rhumerus -3.74397 -11.3215 -57.4563
rradius 86.3365
rwrist 19.2774
rhand -14.776 9.45227
rfingers 7.12502
rthumb 11.3808 -20.2189
lclavicle 6.36111e-015 5.56597e-014
lhumerus -44.6509 5.79629 81.2868
lradius 51.223
lwrist 8.39363
lhand -14.8001 49.2251
lfingers 7.12502
lthumb 11.3576 78.8975
rfemur -34.7016 -2.01311 5.92004
rtibia 60.6742
rfoot -21.3326 -9.39864
rtoes -14.7894
lfemur -15.6965 -4.60291 -0.869672
ltibia 40.1824
lfoot -0.407386 7.3281
ltoes -14.4068
172
root 2.18089 16.9158 4.37348 -94.9497 -79.9568 97.2894
lowerback 40.3195 -0.234228 -0.51024
upperback 7.96078 -1.16621 3.69243
thorax -10.5683 -1.02377 4.83646
lowerneck -12.62 0.695162 -2.7469
upperneck 16.4914 3.08623 -10.4052
head 7.31541 0.238808 -2.65303
rclavicle -7.95139e-015 -4.77083e-015
rhumerus -3.03822 -9.18058 -58.8328
rradius 84.4008
rwrist 21.1259
rhand -17.4112 10.1517
rfingers 7.12502
rthumb 8.83855 -19.6432
lclavicle -7.95139e-015 -4.77083e-015
lhumerus -44.4688 6.0607 81.718
lradius 51.1932
lwrist 8.19242
lhand -15.8371 49.2548
lfingers 7.12502
lthumb 10.3573 78.9798
rfemur -35.1202 -1.98605 5.18589
rtibia 60.8632
rfoot -21.1592 -8.83766
rtoes -14.1334
lfemur -15.3585 -5.14205 -0.527245
ltibia 39.4146
lfoot 0.824815 7.55152
ltoes -19.0837
173
root 2.21277 16.8874 4.54486 -99.3133 -79.9985 101.238
lowerback 40.7063 0.168649 -0.604664
upperback 8.05433 -0.737224 3.70147
thorax -10.6201 -0.842174 4.72041
lowerneck -12.4878 0.633725 -2.61165
upperneck 16.3159 2.96009 -10.4495
head 7.23031 0.197139 -2.69885
rclavicle 9.54166e-015 -3.65764e-014
rhumerus -2.95371 -7.788 -60.0185
rradius 82.0655
rwrist 22.9092
rhand -19.8696 11.0485
rfingers 7.12502
rthumb 6.46572 -18.8328
lclavicle 9.54166e-015 -3.65764e-014
lhumerus -44.0791 5.43638 82.3798
lradius 51.2299
lwrist 8.84095
lhand -17.2209 49.2183
lfingers 7.12502
lthumb 9.0222 79.0053
rfemur -35.0594 -0.84711 4.55436
rtibia 60.9976
rfoot -21.0918 -8.68186
rtoes -13.3262
lfemur -14.2028 -5.38639 -0.193287
ltibia 38.7635
lfoot 1.34332 7.42439
ltoes -22.8609
174
root 2.26154 16.8511 4.73607 -101.416 -79.7528 103.167
lowerback 40.8926 0.502618 -0.774434
upperback 8.0654 -0.408148 3.65099
thorax -10.6925 -0.69201 4.61725
lowerneck -12.5833 0.573486 -2.16258
upperneck 16.4561 2.85662 -10.727
head 7.29643 0.141551 -2.87827
rclavicle -7.95139e-015 1.59028e-014
rhumerus -2.73775 -6.55461 -60.3553
rradius 79.1928
rwrist 24.0041
rhand -21.8604 12.3257
rfingers 7.12502
rthumb 4.54353 -17.6055
lclavicle -7.95139e-015 1.59028e-014
lhumerus -43.7213 5.07208 82.8669
lradius 51.132
lwrist 7.45326
lhand -16.4489 48.7746
lfingers 7.12502
lthumb 9.76708 78.5282
rfemur -35.2776 -0.579314 3.60228
rtibia 61.1476
rfoot -20.9045 -8.34204
rtoes -13.8887
lfemur -13.489 -5.54513 -0.126853
ltibia 38.0093
lfoot 1.56766 7.15267
ltoes -22.1115
175
root 2.3209 16.8178 4.95317 -100.21 -80.1804 102.346
lowerback 40.5832 0.0648289 -0.342891
upperback 7.95937 -0.717602 3.92704
thorax -10.6923 -0.834017 4.82101
lowerneck -13.0282 0.785521 -2.69421
upperneck 16.6739 3.32027 -10.8715
head 7.47153 0.284377 -2.79807
rclavicle -9.54166e-015 3.18055e-015
rhumerus -1.66253 -4.71073 -61.2336
rradius 75.7611
rwrist 26.008
rhand -23.4697 13.6092
rfingers 7.12502
rthumb 2.98949 -16.3496
lclavicle -9.54166e-015 3.18055e-015
lhumerus -43.6351 6.45724 82.9084
lradius 50.8584
lwrist 3.23919
lhand -12.0282 47.0116
lfingers 7.12502
lthumb 14.0298 76.5181
rfemur -35.9629 -1.19788 3.14188
rtibia 61.1514
rfoot -20.6895 -7.4107
rtoes -12.2004
lfemur -13.9225 -6.21043 0.540462
ltibia 37.3685
lfoot 1.83319 6.82924
ltoes -22.0991
176
root 2.37207 16.7868 5.09427 -104.653 -80.881 106.684
lowerback 40.9512 0.781011 -0.167421
upperback 7.91798 0.273485 4.21842
thorax -10.9389 -0.394656 4.62936
lowerneck -12.8056 0.403935 -2.41783
upperneck 16.521 2.68236 -10.663
head 7.34701 0.0377965 -2.83495
rclavicle -6.36111e-015 -1.74931e-014
rhumerus -1.61874 -5.21515 -62.4739
rradius 72.1048
rwrist 29.2056
rhand -24.7398 13.9776
rfingers 7.12502
rthumb 1.76288 -15.9948
lclavicle -6.36111e-015 -1.74931e-014
lhumerus -43.3083 4.23668 84.236
lradius 51.3511
lwrist 5.07853
lhand -15.1156 48.0624
lfingers 7.12502
lthumb 11.0532 77.7513
rfemur -36.1461 -0.300266 3.42396
rtibia 61.0398
rfoot -20.7275 -6.77453
rtoes -8.44394
lfemur -13.2573 -6.36856 1.78937
ltibia 36.7194
lfoot 1.68597 6.04021
ltoes -23.4209
177
root 2.41349 16.7622 5.29184 -106.344 -81.4055 108.429
lowerback 40.7698 0.789589 0.438132
upperback 7.97221 0.547 4.40918
thorax -10.8332 -0.289738 4.39783
lowerneck -12.9356 0.290925 -2.71326
upperneck 16.5691 2.57912 -10.5522
head 7.37831 -0.0267346 -2.76166
rclavicle 3.18055e-014 3.02153e-014
rhumerus -0.622986 -4.91881 -63.1451
rradius 67.9265
rwrist 32.0337
rhand -25.3787 14.0783
rfingers 7.12502
rthumb 1.14584 -15.8984
lclavicle 3.18055e-014 3.02153e-014
lhumerus -42.9541 3.23563 85.1324
lradius 51.5537
lwrist 5.75886
lhand -16.3158 48.4488
lfingers 7.12502
lthumb 9.89548 78.1962
rfemur -36.3333 -0.157986 3.20447
rtibia 60.7962
rfoot -20.4272 -6.29143
rtoes -7.74956
lfemur -13.1596 -6.97417 2.46523
ltibia 36.2917
lfoot 1.39572 5.15942
ltoes -22.7636
